<?xml version="1.0" encoding="UTF-8"?>
<svg version="1.1" xmlns="http://www.w3.org/2000/svg" width="80" height="87">
<path d="M0 0 C26.4 0 52.8 0 80 0 C80 28.71 80 57.42 80 87 C53.6 87 27.2 87 0 87 C0 58.29 0 29.58 0 0 Z " fill="#242423" transform="translate(0,0)"/>
<path d="M0 0 C0.8146875 0.00257812 1.629375 0.00515625 2.46875 0.0078125 C3.2834375 0.00523438 4.098125 0.00265625 4.9375 0 C6.96875 0.1328125 6.96875 0.1328125 7.96875 1.1328125 C8.06850032 3.64417354 8.10757183 6.12184665 8.09375 8.6328125 C8.09955078 9.68662109 8.09955078 9.68662109 8.10546875 10.76171875 C8.09536378 16.00619872 8.09536378 16.00619872 6.96875 17.1328125 C4.9114583 17.45204742 2.85261479 17.64442602 0.78125 17.8515625 C-1.0480033 17.95279293 -1.0480033 17.95279293 -2.03125 19.1328125 C-2.24188107 21.63698185 -2.40697077 24.12421331 -2.53125 26.6328125 C-2.89611486 33.99767736 -2.89611486 33.99767736 -4.03125 35.1328125 C-6.68588121 35.58741108 -9.35314138 35.83524488 -12.03125 36.1328125 C-12.06863281 37.19242188 -12.10601562 38.25203125 -12.14453125 39.34375 C-12.21018258 40.73180674 -12.27663021 42.11982599 -12.34375 43.5078125 C-12.37758789 44.55582031 -12.37758789 44.55582031 -12.41210938 45.625 C-12.51953125 47.65625 -12.51953125 47.65625 -13.03125 51.1328125 C-16.25498677 53.28197035 -17.29828674 53.51568053 -21.03125 53.1328125 C-23.03125 51.1328125 -23.03125 51.1328125 -23.26171875 47.69140625 C-23.25772911 46.31763946 -23.24298177 44.94387136 -23.21875 43.5703125 C-23.21810547 42.87228516 -23.21746094 42.17425781 -23.21679688 41.45507812 C-23.17156158 36.27312408 -23.17156158 36.27312408 -22.03125 35.1328125 C-19.69791667 34.79947917 -17.36458333 34.46614583 -15.03125 34.1328125 C-12.63168729 31.73324979 -13.56549018 25.6042613 -13.41015625 22.35546875 C-13.03125 19.1328125 -13.03125 19.1328125 -11.03125 17.1328125 C-8.70849823 16.73233806 -6.37385643 16.3931021 -4.03125 16.1328125 C-3.94037109 14.52599609 -3.94037109 14.52599609 -3.84765625 12.88671875 C-3.76326463 11.48956859 -3.67861594 10.09243393 -3.59375 8.6953125 C-3.55443359 7.98826172 -3.51511719 7.28121094 -3.47460938 6.55273438 C-3.0795475 0.20135503 -3.0795475 0.20135503 0 0 Z " fill="#F3F337" transform="translate(38.03125,15.8671875)"/>
<path d="M0 0 C26.4 0 52.8 0 80 0 C80 5.28 80 10.56 80 16 C78.37976661 13.83968881 76.77291582 11.66748388 75.25 9.4375 C71.0397326 4.87637699 66.551195 3.84290356 60.54296875 3.59594727 C58.42462073 3.56955174 56.30600463 3.56064429 54.1875 3.56640625 C52.49596802 3.55854347 52.49596802 3.55854347 50.77026367 3.55052185 C48.39340028 3.54411751 46.01650513 3.54541798 43.63964844 3.55395508 C40.01179427 3.56247231 36.38551167 3.53366722 32.7578125 3.50195312 C30.4427088 3.50034108 28.12760233 3.50091871 25.8125 3.50390625 C24.19347778 3.48705528 24.19347778 3.48705528 22.54174805 3.46986389 C15.30726594 3.53653307 10.71230398 4.52555531 5.29296875 9.59765625 C3.45870477 12.02821807 1.68967531 14.46548703 0 17 C0 11.39 0 5.78 0 0 Z " fill="#141416" transform="translate(0,0)"/>
<path d="M0 0 C3.5 0.125 3.5 0.125 4.5 1.125 C4.62487758 2.93427281 4.67570846 4.74896107 4.6875 6.5625 C4.70167969 7.55121094 4.71585938 8.53992188 4.73046875 9.55859375 C4.5 12.125 4.5 12.125 2.5 14.125 C-0.5625 14.3125 -0.5625 14.3125 -3.5 14.125 C-4.5 13.125 -4.5 13.125 -4.6328125 10.4375 C-4.63023438 9.344375 -4.62765625 8.25125 -4.625 7.125 C-4.62757812 6.031875 -4.63015625 4.93875 -4.6328125 3.8125 C-4.43248143 -0.24125818 -4.18897343 0.14960619 0 0 Z " fill="#EEEE36" transform="translate(42.5,54.875)"/>
<path d="M0 0 C3 0.125 3 0.125 4 1.125 C4.09873816 3.12299572 4.12971799 5.12457158 4.125 7.125 C4.12757812 8.218125 4.13015625 9.31125 4.1328125 10.4375 C4 13.125 4 13.125 3 14.125 C0 14.25 0 14.25 -3 14.125 C-4 13.125 -4 13.125 -4.1328125 10.4375 C-4.13023438 9.344375 -4.12765625 8.25125 -4.125 7.125 C-4.12757812 6.031875 -4.13015625 4.93875 -4.1328125 3.8125 C-3.94533097 0.01875601 -3.83780055 0.15990836 0 0 Z " fill="#F1F137" transform="translate(53,36.875)"/>
<path d="M0 0 C1.32 0 2.64 0 4 0 C5.12256131 2.24512262 5.13413762 3.51456649 5.125 6 C5.12757812 6.70125 5.13015625 7.4025 5.1328125 8.125 C5 10 5 10 4 12 C-0.875 11.125 -0.875 11.125 -2 10 C-2.27314815 4.26388889 -2.27314815 4.26388889 -2 2 C-1.34 1.34 -0.68 0.68 0 0 Z " fill="#EDED35" transform="translate(62,57)"/>
</svg>
